<svg width="46" height="46" viewBox="0 0 46 46" fill="none" xmlns="http://www.w3.org/2000/svg">
<g clip-path="url(#clip0_344_903)">
<path d="M23 8.53226C21.7387 8.53226 20.7742 7.56774 20.7742 6.30645V2.22581C20.7742 0.964516 21.7387 0 23 0C24.2613 0 25.2258 0.964516 25.2258 2.22581V6.30645C25.2258 7.49355 24.2613 8.53226 23 8.53226Z" fill="#A2FFDB"/>
<path d="M23 46C21.7387 46 20.7742 45.0355 20.7742 43.7742V39.6936C20.7742 38.4323 21.7387 37.4678 23 37.4678C24.2613 37.4678 25.2258 38.4323 25.2258 39.6936V43.7742C25.2258 45.0355 24.2613 46 23 46Z" fill="#0CCC80"/>
<path d="M14.6161 10.7581C13.8742 10.7581 13.1323 10.3871 12.6871 9.64519L10.6839 6.15809C10.0903 5.11938 10.4613 3.7097 11.5 3.11616C12.5387 2.52261 13.9484 2.89358 14.5419 3.93228L16.5452 7.41938C17.1387 8.45809 16.7677 9.86777 15.729 10.4613C15.4323 10.6097 14.9871 10.7581 14.6161 10.7581Z" fill="#BBFFF2"/>
<path d="M33.3871 43.1807C32.6452 43.1807 31.9032 42.8097 31.4581 42.0678L29.4548 38.5807C28.8613 37.542 29.2323 36.1323 30.271 35.5388C31.3097 34.9452 32.7194 35.3162 33.3129 36.3549L35.3161 39.842C35.9097 40.8807 35.5387 42.2904 34.5 42.8839C34.129 43.1065 33.7581 43.1807 33.3871 43.1807Z" fill="#0EEC97"/>
<path d="M8.53226 16.842C8.16129 16.842 7.79033 16.7678 7.41936 16.5452L3.93226 14.542C2.89355 13.9484 2.52258 12.5387 3.11613 11.5C3.70968 10.4613 5.11936 10.0904 6.15807 10.6839L9.64517 12.6871C10.6839 13.2807 11.0548 14.6904 10.4613 15.7291C10.0161 16.471 9.2742 16.842 8.53226 16.842Z" fill="#E1FFF9"/>
<path d="M41.029 35.613C40.6581 35.613 40.2871 35.5388 39.9161 35.3162L36.3548 33.313C35.3161 32.7194 34.9452 31.3097 35.5387 30.271C36.1323 29.2323 37.5419 28.8614 38.5806 29.4549L42.0677 31.4581C43.1065 32.0517 43.4774 33.4614 42.8839 34.5001C42.5129 35.242 41.771 35.613 41.029 35.613Z" fill="#49F8B5"/>
<path d="M6.30645 25.2258H2.22581C0.964516 25.2258 0 24.2613 0 23C0 21.7387 0.964516 20.7742 2.22581 20.7742H6.30645C7.56774 20.7742 8.53226 21.7387 8.53226 23C8.53226 24.2613 7.49355 25.2258 6.30645 25.2258Z" fill="#F3FFFD"/>
<path d="M43.7742 25.2258H39.6935C38.4323 25.2258 37.4677 24.2613 37.4677 23C37.4677 21.7387 38.4323 20.7742 39.6935 20.7742H43.7742C45.0355 20.7742 46 21.7387 46 23C46 24.2613 45.0355 25.2258 43.7742 25.2258Z" fill="#40FFB6"/>
<path d="M4.97097 35.613C4.22903 35.613 3.4871 35.242 3.04194 34.5001C2.44839 33.4614 2.81936 32.0517 3.85807 31.4581L7.34516 29.4549C8.38387 28.8614 9.79355 29.2323 10.3871 30.271C10.9806 31.3097 10.6097 32.7194 9.57097 33.313L6.08387 35.3162C5.7871 35.5388 5.41613 35.613 4.97097 35.613Z" fill="#0CCC83"/>
<path d="M37.4677 16.842C36.7258 16.842 35.9839 16.471 35.5387 15.7291C34.9452 14.6904 35.3161 13.2807 36.3548 12.6871L39.8419 10.6839C40.8806 10.0904 42.2903 10.4613 42.8839 11.5C43.4774 12.5387 43.1065 13.9484 42.0677 14.542L38.5806 16.5452C38.2097 16.7678 37.8387 16.842 37.4677 16.842Z" fill="#8AF8CE"/>
<path d="M12.6129 43.1807C12.2419 43.1807 11.871 43.1065 11.5 42.8839C10.4613 42.2904 10.0903 40.8807 10.6839 39.842L12.6871 36.3549C13.2806 35.3162 14.6903 34.9452 15.729 35.5388C16.7677 36.1323 17.1387 37.542 16.5452 38.5807L14.5419 42.0678C14.0968 42.8097 13.3548 43.1807 12.6129 43.1807Z" fill="#0CCC82"/>
<path d="M31.3839 10.7581C31.0129 10.7581 30.6419 10.6839 30.271 10.4613C29.2323 9.86777 28.8613 8.45809 29.4548 7.41938L31.4581 3.93228C32.0516 2.89358 33.4613 2.52261 34.5 3.11616C35.5387 3.7097 35.9097 5.11938 35.3161 6.15809L33.3129 9.64519C32.8677 10.3129 32.1258 10.7581 31.3839 10.7581Z" fill="#79FFCC"/>
</g>
<defs>
<clipPath id="clip0_344_903">
<rect width="46" height="46" fill="white"/>
</clipPath>
</defs>
</svg>
